<svg width="960" height="256" viewBox="0 0 960 256" fill="none" xmlns="http://www.w3.org/2000/svg">
<g clip-path="url(#clip0_210_104)">
<rect width="960" height="256" fill="black"/>
<g filter="url(#filter0_f_210_104)">
<path d="M1051.6 204.036L1057.82 -79.7557C1011.02 -109.696 949.841 -103.935 909.45 -65.784L862.999 -21.9082L494.904 42.5791L205.122 104.588L-101.565 408.979L-140.833 518.003C-108.934 815.918 278.593 598.435 286.91 595.747C295.228 593.06 727.082 502.717 810.597 432.177L1051.6 204.036Z" fill="#8B1BC0" fill-opacity="0.5"/>
<path d="M1051.6 204.036L1057.82 -79.7557C1011.02 -109.696 949.841 -103.935 909.45 -65.784L862.999 -21.9082L494.904 42.5791L205.122 104.588L-101.565 408.979L-140.833 518.003C-108.934 815.918 278.593 598.435 286.91 595.747C295.228 593.06 727.082 502.717 810.597 432.177L1051.6 204.036Z" stroke="black"/>
</g>
<path d="M221.187 55.2012C228.644 48.0671 237.749 44.5 248.499 44.5C259.25 44.5 268.355 48.0671 275.812 55.2012C280.601 59.8422 283.852 65.1412 285.566 71.098C286.521 74.4185 286.999 77.9433 286.999 81.6725C286.999 87.0248 286.015 91.9436 284.047 96.4289C282.184 100.676 279.439 104.534 275.812 108.003C268.355 115.231 259.25 118.845 248.499 118.845C237.749 118.845 228.644 115.231 221.187 108.003C213.729 100.869 210 92.0921 210 81.6725C210 71.253 213.729 62.4292 221.187 55.2012ZM260.412 69.7041C260.181 69.4801 259.946 69.2642 259.707 69.0564C256.638 66.3905 252.902 65.0576 248.499 65.0576C245.061 65.0576 240.351 65.0576 236.193 65.0576C233.762 65.0576 231.792 67.0639 231.792 69.5395C231.792 73.5813 231.792 78.1888 231.792 81.6725C231.792 86.5538 233.39 90.5433 236.586 93.641C239.783 96.7387 243.754 98.2875 248.499 98.2875C253.245 98.2875 257.216 96.7387 260.412 93.641C261.674 92.4187 262.686 91.0576 263.449 89.5576C264.621 87.2561 265.207 84.6278 265.207 81.6725C265.207 76.7913 263.609 72.8018 260.412 69.7041Z" fill="white"/>
<path d="M296.847 131.766C289.412 138.922 280.335 142.5 269.617 142.5C258.899 142.5 249.822 138.922 242.387 131.766C237.589 127.087 234.338 121.742 232.637 115.729C231.702 112.426 231.234 108.921 231.234 105.215C231.234 99.9089 232.193 95.0277 234.109 90.5711C235.968 86.2496 238.727 82.3273 242.387 78.8045C247.409 73.9074 253.181 70.6642 259.701 69.075C262.833 68.3114 266.139 67.9296 269.617 67.9296C275.41 67.9296 280.724 68.9886 285.558 71.1067C289.668 72.9072 293.431 75.4732 296.847 78.8045C304.282 85.9602 308 94.7637 308 105.215C308 115.666 304.282 124.516 296.847 131.766ZM257.74 117.22C257.925 117.399 258.111 117.574 258.301 117.743C261.387 120.501 265.159 121.88 269.617 121.88C273.042 121.88 277.731 121.88 281.873 121.88C284.304 121.88 286.274 119.874 286.274 117.398C286.274 113.341 286.274 108.713 286.274 105.215C286.274 101.868 285.529 98.9394 284.041 96.4286C283.351 95.2662 282.503 94.1934 281.494 93.2101C278.308 90.103 274.349 88.5495 269.617 88.5495C267.384 88.5495 265.323 88.8955 263.434 89.5877C261.321 90.362 259.423 91.5695 257.74 93.2101C256.508 94.4119 255.514 95.7476 254.758 97.2171C253.56 99.5467 252.961 102.213 252.961 105.215C252.961 110.111 254.554 114.112 257.74 117.22Z" fill="#9100EB"/>
<path d="M269.617 88.5495C274.349 88.5495 278.308 90.103 281.494 93.2101C282.503 94.1934 283.35 95.2752 284.039 96.4376C286.007 91.9522 286.991 87.0335 286.991 81.6812C286.991 77.952 286.514 74.4271 285.558 71.1067C280.724 68.9886 275.41 67.9296 269.617 67.9296C266.139 67.9296 262.855 68.2872 259.722 69.0508C259.961 69.2586 260.165 69.5103 260.396 69.7343C263.592 72.832 265.19 76.8214 265.19 81.7027C265.19 84.6579 264.605 87.2862 263.434 89.5877C265.323 88.8955 267.384 88.5495 269.617 88.5495Z" fill="white"/>
<path d="M560.124 85.9518C554.117 79.3707 546.841 76.0802 538.296 76.0802C530.532 76.0802 524.319 78.4631 519.657 83.2289C518.99 83.9106 517.737 83.4637 517.737 82.51V51C517.737 47.6863 515.051 45 511.737 45H507.367C504.053 45 501.367 47.6863 501.367 51V135.976C501.367 139.29 504.053 141.976 507.367 141.976H517.737H519.896C525.114 141.933 527.445 141.944 530.591 141.958H530.592L530.596 141.958H530.596H530.596H530.597H530.597C532.515 141.966 534.736 141.976 538.099 141.976C546.644 141.976 554.117 140.523 560.124 134.028C566.216 127.446 569.261 119.412 569.261 109.926C569.261 100.439 566.216 92.4473 560.124 85.9518ZM523.737 128.002C520.424 128.002 517.737 125.316 517.737 122.002V109.926C517.737 104.627 519.387 100.31 522.687 96.9771C525.986 93.5584 530.174 91.8491 535.25 91.8491C540.327 91.8491 544.515 93.5584 547.814 96.9771C551.198 100.31 552.89 104.627 552.89 109.926C552.89 115.225 551.198 119.583 547.814 123.002C544.515 126.335 540.327 128.002 535.25 128.002H523.737ZM394.397 66.6714C394.397 57.7069 401.664 50.4398 410.628 50.4398C411.336 50.4398 411.91 51.0135 411.91 51.7213V138.954C411.91 139.632 411.36 140.181 410.682 140.181C403.105 140.181 396.008 136.468 391.688 130.242L362.939 88.8076C362.195 87.7353 360.513 88.2618 360.513 89.5669V123.95C360.513 132.914 353.246 140.181 344.281 140.181C343.574 140.181 343 139.607 343 138.9V52.1886C343 51.2228 343.783 50.4398 344.749 50.4398C352.001 50.4398 358.794 53.9898 362.935 59.9437L391.977 101.702C392.72 102.771 394.397 102.245 394.397 100.943V66.6714ZM444.081 114.925C442.762 114.925 441.799 116.188 442.312 117.404C445.002 123.786 450.683 126.976 459.354 126.976C464.19 126.976 468.117 125.702 471.136 123.152C472.685 121.843 474.888 121.336 476.64 122.357L483.978 126.634C485.484 127.511 485.937 129.494 484.824 130.834C478.654 138.262 470.08 141.976 459.1 141.976C448.609 141.976 440.191 138.771 433.846 132.361C427.5 125.951 424.328 117.874 424.328 108.131C424.328 98.4728 427.458 90.4388 433.719 84.0287C439.98 77.5332 448.017 74.2854 457.831 74.2854C467.137 74.2854 474.794 77.5332 480.801 84.0287C486.892 90.5243 489.938 98.5583 489.938 108.131C489.938 108.721 489.922 109.321 489.89 109.93C489.736 112.837 487.182 114.925 484.271 114.925H444.081ZM441.901 99.7002C441.469 100.908 442.428 102.105 443.711 102.105H471.095C472.368 102.105 473.325 100.927 472.92 99.7205C471.853 96.5417 470.123 94.0889 467.73 92.3619C464.853 90.2252 461.554 89.1568 457.831 89.1568C453.432 89.1568 449.794 90.3106 446.917 92.6183C444.63 94.3848 442.958 96.7455 441.901 99.7002ZM622.686 82.0802C622.686 78.7665 625.372 76.0802 628.686 76.0802H633.057C636.37 76.0802 639.057 78.7665 639.057 82.0802V138.807C639.057 140.557 637.638 141.976 635.888 141.976H627.686C624.924 141.976 622.686 139.737 622.686 136.976C622.686 135.787 621.019 135.237 620.179 136.077C616.241 140.01 610.773 141.976 603.777 141.976C596.839 141.976 591.086 139.626 586.518 134.925C582.033 130.224 579.791 123.729 579.791 115.438V82.0802C579.791 78.7665 582.478 76.0802 585.791 76.0802H590.162C593.476 76.0802 596.162 78.7665 596.162 82.0802V113.387C596.162 117.66 597.305 120.951 599.589 123.259C601.873 125.481 604.919 126.592 608.726 126.592C612.956 126.592 616.34 125.267 618.878 122.618C621.417 119.968 622.686 115.994 622.686 110.695V82.0802ZM654.05 140.05C654.05 141.114 654.913 141.976 655.976 141.976C663.954 141.976 670.421 135.509 670.421 127.531V48.5198C670.421 47.4561 669.559 46.5938 668.495 46.5938C660.517 46.5938 654.05 53.061 654.05 61.0386V140.05ZM733.629 79.7173C733.629 76.7174 736.061 74.2854 739.061 74.2854H744C747.314 74.2854 750 76.9717 750 80.2854V135.991C750 139.308 747.308 141.996 743.991 141.991L736.222 141.98C734.782 141.978 733.61 140.823 733.585 139.384C733.57 138.485 732.15 138.043 731.459 138.617C727.417 141.976 720.403 141.976 713.051 141.976H712.944C704.483 141.976 697.207 138.728 691.116 132.233C685.109 125.652 682.105 117.618 682.105 108.131C682.105 98.6438 685.109 90.6525 691.116 84.1569C697.207 77.5759 704.483 74.2854 712.944 74.2854C720.691 74.2854 724.649 76.8164 730.775 81.1852C731.972 82.0391 733.629 81.1878 733.629 79.7173ZM703.426 121.207C706.725 124.541 710.913 126.207 715.989 126.207L730.629 126.207C732.286 126.207 733.629 124.864 733.629 123.207L733.629 108.131C733.629 102.832 731.937 98.5156 728.553 95.1823C725.253 91.7636 721.065 90.0542 715.989 90.0542C710.913 90.0542 706.725 91.7636 703.426 95.1823C700.126 98.5156 698.476 102.832 698.476 108.131C698.476 113.43 700.126 117.789 703.426 121.207Z" fill="white"/>
<path d="M560.124 85.9518C554.117 79.3707 546.841 76.0802 538.296 76.0802C530.532 76.0802 524.319 78.4631 519.657 83.2289C518.99 83.9106 517.737 83.4637 517.737 82.51V51C517.737 47.6863 515.051 45 511.737 45H507.367C504.053 45 501.367 47.6863 501.367 51V135.976C501.367 139.29 504.053 141.976 507.367 141.976H517.737H519.896C525.114 141.933 527.445 141.944 530.591 141.958H530.592L530.596 141.958H530.596H530.596H530.597H530.597C532.515 141.966 534.736 141.976 538.099 141.976C546.644 141.976 554.117 140.523 560.124 134.028C566.216 127.446 569.261 119.412 569.261 109.926C569.261 100.439 566.216 92.4473 560.124 85.9518ZM523.737 128.002C520.424 128.002 517.737 125.316 517.737 122.002V109.926C517.737 104.627 519.387 100.31 522.687 96.9771C525.986 93.5584 530.174 91.8491 535.25 91.8491C540.327 91.8491 544.515 93.5584 547.814 96.9771C551.198 100.31 552.89 104.627 552.89 109.926C552.89 115.225 551.198 119.583 547.814 123.002C544.515 126.335 540.327 128.002 535.25 128.002H523.737ZM394.397 66.6714C394.397 57.7069 401.664 50.4398 410.628 50.4398C411.336 50.4398 411.91 51.0135 411.91 51.7213V138.954C411.91 139.632 411.36 140.181 410.682 140.181C403.105 140.181 396.008 136.468 391.688 130.242L362.939 88.8076C362.195 87.7353 360.513 88.2618 360.513 89.5669V123.95C360.513 132.914 353.246 140.181 344.281 140.181C343.574 140.181 343 139.607 343 138.9V52.1886C343 51.2228 343.783 50.4398 344.749 50.4398C352.001 50.4398 358.794 53.9898 362.935 59.9437L391.977 101.702C392.72 102.771 394.397 102.245 394.397 100.943V66.6714ZM444.081 114.925C442.762 114.925 441.799 116.188 442.312 117.404C445.002 123.786 450.683 126.976 459.354 126.976C464.19 126.976 468.117 125.702 471.136 123.152C472.685 121.843 474.888 121.336 476.64 122.357L483.978 126.634C485.484 127.511 485.937 129.494 484.824 130.834C478.654 138.262 470.08 141.976 459.1 141.976C448.609 141.976 440.191 138.771 433.846 132.361C427.5 125.951 424.328 117.874 424.328 108.131C424.328 98.4728 427.458 90.4388 433.719 84.0287C439.98 77.5332 448.017 74.2854 457.831 74.2854C467.137 74.2854 474.794 77.5332 480.801 84.0287C486.892 90.5243 489.938 98.5583 489.938 108.131C489.938 108.721 489.922 109.321 489.89 109.93C489.736 112.837 487.182 114.925 484.271 114.925H444.081ZM441.901 99.7002C441.469 100.908 442.428 102.105 443.711 102.105H471.095C472.368 102.105 473.325 100.927 472.92 99.7205C471.853 96.5417 470.123 94.0889 467.73 92.3619C464.853 90.2252 461.554 89.1568 457.831 89.1568C453.432 89.1568 449.794 90.3106 446.917 92.6183C444.63 94.3848 442.958 96.7455 441.901 99.7002ZM622.686 82.0802C622.686 78.7665 625.372 76.0802 628.686 76.0802H633.057C636.37 76.0802 639.057 78.7665 639.057 82.0802V138.807C639.057 140.557 637.638 141.976 635.888 141.976H627.686C624.924 141.976 622.686 139.737 622.686 136.976C622.686 135.787 621.019 135.237 620.179 136.077C616.241 140.01 610.773 141.976 603.777 141.976C596.839 141.976 591.086 139.626 586.518 134.925C582.033 130.224 579.791 123.729 579.791 115.438V82.0802C579.791 78.7665 582.478 76.0802 585.791 76.0802H590.162C593.476 76.0802 596.162 78.7665 596.162 82.0802V113.387C596.162 117.66 597.305 120.951 599.589 123.259C601.873 125.481 604.919 126.592 608.726 126.592C612.956 126.592 616.34 125.267 618.878 122.618C621.417 119.968 622.686 115.994 622.686 110.695V82.0802ZM654.05 140.05C654.05 141.114 654.913 141.976 655.976 141.976C663.954 141.976 670.421 135.509 670.421 127.531V48.5198C670.421 47.4561 669.559 46.5938 668.495 46.5938C660.517 46.5938 654.05 53.061 654.05 61.0386V140.05ZM733.629 79.7173C733.629 76.7174 736.061 74.2854 739.061 74.2854H744C747.314 74.2854 750 76.9717 750 80.2854V135.991C750 139.308 747.308 141.996 743.991 141.991L736.222 141.98C734.782 141.978 733.61 140.823 733.585 139.384C733.57 138.485 732.15 138.043 731.459 138.617C727.417 141.976 720.403 141.976 713.051 141.976H712.944C704.483 141.976 697.207 138.728 691.116 132.233C685.109 125.652 682.105 117.618 682.105 108.131C682.105 98.6438 685.109 90.6525 691.116 84.1569C697.207 77.5759 704.483 74.2854 712.944 74.2854C720.691 74.2854 724.649 76.8164 730.775 81.1852C731.972 82.0391 733.629 81.1878 733.629 79.7173ZM703.426 121.207C706.725 124.541 710.913 126.207 715.989 126.207L730.629 126.207C732.286 126.207 733.629 124.864 733.629 123.207L733.629 108.131C733.629 102.832 731.937 98.5156 728.553 95.1823C725.253 91.7636 721.065 90.0542 715.989 90.0542C710.913 90.0542 706.725 91.7636 703.426 95.1823C700.126 98.5156 698.476 102.832 698.476 108.131C698.476 113.43 700.126 117.789 703.426 121.207Z" stroke="white"/>
<path d="M69.5455 168.919C70.9827 168.919 72.1477 170.084 72.1477 171.522V171.522C72.1477 172.959 70.9827 174.124 69.5455 174.124H65.8201C64.1632 174.124 62.8201 175.467 62.8201 177.124V199.315C62.8201 200.819 61.6011 202.038 60.0975 202.038V202.038C58.5939 202.038 57.375 200.819 57.375 199.315V177.124C57.375 175.467 56.0318 174.124 54.375 174.124H50.6021C49.165 174.124 48 172.959 48 171.522V171.522C48 170.084 49.165 168.919 50.6022 168.919H69.5455Z" fill="white"/>
<path d="M88.2954 177.767C91.01 177.767 93.2038 178.634 94.8768 180.369C96.5498 182.104 97.3862 184.485 97.3862 187.513V199.481C97.3862 200.893 96.2415 202.038 94.8294 202.038V202.038C93.4173 202.038 92.2726 200.893 92.2726 199.481V188.033C92.2726 186.267 91.7991 184.911 90.8522 183.965C89.9052 183.018 88.611 182.545 86.9696 182.545C85.1704 182.545 83.7183 183.113 82.6135 184.248C81.5087 185.352 80.9563 187.056 80.9563 189.358V197.244C80.9563 199.891 78.81 202.038 76.1623 202.038V202.038C75.9858 202.038 75.8427 201.895 75.8427 201.718V173.713C75.8427 171.066 77.9891 168.919 80.6367 168.919V168.919C80.8133 168.919 80.9563 169.062 80.9563 169.239V177.978C80.9563 178.978 82.5105 179.529 83.3621 179.004C84.701 178.179 86.3454 177.767 88.2954 177.767Z" fill="white"/>
<path d="M110.615 192.386C108.709 192.386 107.244 194.257 108.527 195.666C108.823 195.99 109.154 196.285 109.521 196.549C110.878 197.496 112.536 197.969 114.493 197.969C116.311 197.969 117.826 197.53 119.035 196.652C120.068 195.902 121.451 195.532 122.553 196.175V196.175C123.776 196.89 124.157 198.518 123.131 199.495C120.922 201.6 118.027 202.653 114.445 202.653C110.594 202.653 107.485 201.486 105.118 199.152C102.75 196.786 101.567 193.805 101.567 190.21C101.567 186.677 102.735 183.728 105.07 181.362C107.406 178.965 110.405 177.767 114.067 177.767C117.539 177.767 120.38 178.981 122.589 181.41C124.83 183.838 125.951 186.787 125.951 190.257V190.257C125.951 191.484 124.85 192.386 123.623 192.386H110.615ZM108.328 184.932C107.149 186.403 108.619 188.223 110.504 188.223H117.2C119.07 188.223 120.568 186.422 119.433 184.936C119.126 184.533 118.773 184.178 118.375 183.87C117.144 182.892 115.692 182.403 114.019 182.403C112.125 182.403 110.547 182.924 109.284 183.965C108.929 184.257 108.61 184.58 108.328 184.932Z" fill="white"/>
<path d="M169.538 178.46C169.551 178.414 169.594 178.382 169.642 178.382V178.382C172.277 178.382 174.154 180.94 173.364 183.454L167.618 201.74C167.562 201.917 167.398 202.038 167.212 202.038V202.038C164.414 202.038 161.942 200.214 161.117 197.54L158.017 187.504C157.884 187.074 157.276 187.073 157.142 187.503L154.011 197.545C153.177 200.217 150.703 202.038 147.904 202.038H147.796C147.674 202.038 147.566 201.959 147.529 201.842L141.761 183.487C140.966 180.957 142.856 178.382 145.509 178.382V178.382C145.536 178.382 145.56 178.4 145.567 178.426L149.223 191.418C149.493 192.38 150.851 192.394 151.142 191.439L154.472 180.508C154.856 179.245 156.021 178.382 157.341 178.382H157.768C159.091 178.382 160.258 179.249 160.64 180.515L163.934 191.436C164.223 192.393 165.581 192.382 165.854 191.421L169.538 178.46Z" fill="white"/>
<path d="M188.973 202.653C185.501 202.653 182.55 201.454 180.119 199.057C177.689 196.66 176.473 193.711 176.473 190.21C176.473 186.709 177.689 183.759 180.119 181.362C182.55 178.965 185.501 177.767 188.973 177.767C192.477 177.767 195.428 178.965 197.827 181.362C200.258 183.759 201.473 186.709 201.473 190.21C201.473 193.711 200.258 196.66 197.827 199.057C195.428 201.454 192.477 202.653 188.973 202.653ZM183.718 195.556C185.138 196.975 186.89 197.685 188.973 197.685C191.057 197.685 192.808 196.975 194.229 195.556C195.649 194.137 196.36 192.354 196.36 190.21C196.36 188.065 195.649 186.283 194.229 184.863C192.808 183.444 191.057 182.734 188.973 182.734C186.89 182.734 185.138 183.444 183.718 184.863C182.297 186.283 181.587 188.065 181.587 190.21C181.587 192.354 182.297 194.137 183.718 195.556Z" fill="white"/>
<path d="M211.211 179.074C211.211 179.822 212.541 180.2 213.106 179.709C214.122 178.827 215.395 178.278 216.926 178.062C217.791 177.939 218.502 178.664 218.502 179.537V180.635C218.502 182.182 217.16 183.344 215.674 183.775C214.853 184.013 214.091 184.392 213.389 184.911C211.937 185.952 211.211 187.686 211.211 190.115V199.481C211.211 200.893 210.066 202.038 208.654 202.038V202.038C207.242 202.038 206.097 200.893 206.097 199.481V180.939C206.097 179.526 207.242 178.382 208.654 178.382H210.519C210.901 178.382 211.211 178.691 211.211 179.074V179.074Z" fill="white"/>
<path d="M222.488 202.038C222.373 202.038 222.281 201.945 222.281 201.83V172.509C222.281 169.743 224.523 167.5 227.29 167.5V167.5C227.348 167.5 227.394 167.547 227.394 167.604V197.131C227.394 199.841 225.198 202.038 222.488 202.038V202.038Z" fill="white"/>
<path d="M252.082 171.476C252.082 170.064 253.226 168.919 254.638 168.919V168.919C256.051 168.919 257.195 170.064 257.195 171.476V199.481C257.195 200.893 256.051 202.038 254.638 202.038H252.911C252.453 202.038 252.082 201.666 252.082 201.208V201.208C252.082 200.402 250.956 200.003 250.333 200.515C248.599 201.94 246.42 202.653 243.796 202.653C240.544 202.653 237.767 201.454 235.462 199.057C233.158 196.628 232.006 193.679 232.006 190.21C232.006 186.709 233.158 183.759 235.462 181.362C237.767 178.965 240.544 177.767 243.796 177.767C246.217 177.767 248.259 178.366 249.923 179.566C250.709 180.132 252.082 179.633 252.082 178.664V171.476ZM239.25 195.651C240.671 197.07 242.454 197.78 244.601 197.78C246.747 197.78 248.531 197.07 249.951 195.651C251.371 194.2 252.082 192.386 252.082 190.21C252.082 188.033 251.371 186.235 249.951 184.816C248.531 183.365 246.747 182.64 244.601 182.64C242.454 182.64 240.671 183.365 239.25 184.816C237.83 186.235 237.12 188.033 237.12 190.21C237.12 192.386 237.83 194.2 239.25 195.651Z" fill="white"/>
<path d="M266.83 168.919C268.558 168.919 269.816 170.56 269.366 172.23L267.383 179.589C267.124 180.551 266.251 181.22 265.253 181.22V181.22C263.902 181.22 262.868 180.015 263.073 178.679L264.233 171.147C264.43 169.865 265.533 168.919 266.83 168.919V168.919Z" fill="white"/>
<path d="M276.488 184.911C276.488 185.699 276.914 186.33 277.766 186.803C278.65 187.245 279.707 187.639 280.938 187.986C282.201 188.301 283.464 188.68 284.726 189.122C285.989 189.563 287.046 190.32 287.899 191.392C288.782 192.433 289.224 193.758 289.224 195.367C289.224 197.638 288.34 199.42 286.573 200.713C284.837 202.006 282.643 202.653 279.991 202.653C277.655 202.653 275.651 202.164 273.978 201.186C272.961 200.592 272.114 199.858 271.435 198.984C270.675 198.006 271.141 196.648 272.212 196.026V196.026C273.527 195.264 275.177 195.997 276.385 196.92C277.3 197.619 278.502 197.969 279.991 197.969C282.674 197.969 284.016 197.086 284.016 195.319C284.016 194.562 283.574 193.947 282.69 193.474C281.838 193.001 280.78 192.607 279.518 192.291C278.287 191.944 277.04 191.55 275.777 191.109C274.515 190.667 273.441 189.942 272.558 188.932C271.705 187.891 271.279 186.582 271.279 185.005C271.279 182.829 272.1 181.078 273.741 179.754C275.414 178.429 277.482 177.767 279.944 177.767C281.901 177.767 283.637 178.208 285.152 179.091C285.992 179.554 286.725 180.119 287.351 180.786C288.241 181.734 287.797 183.195 286.662 183.83V183.83C285.441 184.514 283.932 183.887 282.754 183.132C281.997 182.646 281.06 182.403 279.944 182.403C278.965 182.403 278.145 182.624 277.482 183.066C276.819 183.476 276.488 184.091 276.488 184.911Z" fill="white"/>
<path d="M322.348 178.382C324.005 178.382 325.348 179.725 325.348 181.382V199.481C325.348 200.893 324.203 202.038 322.791 202.038V202.038C321.379 202.038 320.235 200.893 320.235 199.481V186.302C320.235 184.645 318.891 183.302 317.235 183.302H315.375C313.718 183.302 312.375 184.645 312.375 186.302V199.481C312.375 200.893 311.23 202.038 309.818 202.038V202.038C308.406 202.038 307.261 200.893 307.261 199.481V185.101C307.261 184.108 306.456 183.302 305.462 183.302V183.302C304.468 183.302 303.663 182.497 303.663 181.503V180.181C303.663 179.187 304.468 178.382 305.462 178.382H306.788C307.049 178.382 307.261 178.17 307.261 177.909V177.909C307.261 171.506 310.828 168.304 317.962 168.304C319.054 168.304 320.18 168.392 321.34 168.567C322.444 168.733 323.217 169.713 323.217 170.83V170.83C323.217 172.29 321.918 173.403 320.461 173.306C319.645 173.252 318.812 173.225 317.962 173.225C316.068 173.225 314.663 173.572 313.748 174.266C312.832 174.959 312.375 176.174 312.375 177.909V177.909C312.375 178.17 312.587 178.382 312.848 178.382H322.348Z" fill="white"/>
<path d="M336.379 179.921C336.379 180.476 337.303 180.719 337.672 180.305C338.548 179.32 339.663 178.645 341.019 178.28C342.447 177.894 343.671 179.155 343.671 180.635V180.635C343.671 182.182 342.328 183.344 340.842 183.775C340.021 184.013 339.26 184.392 338.557 184.911C337.105 185.952 336.379 187.686 336.379 190.115V199.481C336.379 200.893 335.234 202.038 333.822 202.038V202.038C332.41 202.038 331.265 200.893 331.265 199.481V180.939C331.265 179.526 332.41 178.382 333.822 178.382H334.839C335.69 178.382 336.379 179.071 336.379 179.921V179.921Z" fill="white"/>
<path d="M351.209 184.911C351.209 185.699 351.635 186.33 352.488 186.803C353.372 187.245 354.429 187.639 355.66 187.986C356.923 188.301 358.185 188.68 359.448 189.122C360.711 189.563 361.768 190.32 362.62 191.392C363.504 192.433 363.946 193.758 363.946 195.367C363.946 197.638 363.062 199.42 361.295 200.713C359.558 202.006 357.365 202.653 354.713 202.653C352.377 202.653 350.373 202.164 348.7 201.186C347.683 200.592 346.835 199.858 346.157 198.984C345.397 198.006 345.863 196.648 346.934 196.026V196.026C348.248 195.264 349.899 195.997 351.106 196.92C352.022 197.619 353.224 197.969 354.713 197.969C357.396 197.969 358.738 197.086 358.738 195.319C358.738 194.562 358.296 193.947 357.412 193.474C356.56 193.001 355.502 192.607 354.24 192.291C353.009 191.944 351.762 191.55 350.499 191.109C349.236 190.667 348.163 189.942 347.279 188.932C346.427 187.891 346.001 186.582 346.001 185.005C346.001 182.829 346.822 181.078 348.463 179.754C350.136 178.429 352.204 177.767 354.666 177.767C356.623 177.767 358.359 178.208 359.874 179.091C360.714 179.554 361.447 180.119 362.073 180.786C362.963 181.734 362.518 183.195 361.383 183.83V183.83C360.163 184.514 358.654 183.887 357.476 183.132C356.718 182.646 355.782 182.403 354.666 182.403C353.687 182.403 352.866 182.624 352.204 183.066C351.541 183.476 351.209 184.091 351.209 184.911Z" fill="white"/>
<path d="M380.727 180.842C380.727 182.201 379.625 183.302 378.266 183.302H377.791C376.17 183.302 374.855 184.616 374.855 186.238V194.657C374.855 195.635 375.076 196.344 375.518 196.786C375.96 197.196 376.607 197.433 377.46 197.496C377.704 197.504 377.964 197.51 378.239 197.511C379.593 197.518 380.727 198.583 380.727 199.937V199.937C380.727 201.136 379.832 202.161 378.634 202.219C375.794 202.358 373.682 201.966 372.299 201.044C370.594 199.877 369.742 197.748 369.742 194.657V185.48C369.742 184.277 368.767 183.302 367.564 183.302V183.302C366.361 183.302 365.386 182.327 365.386 181.124V180.56C365.386 179.357 366.361 178.382 367.564 178.382V178.382C368.767 178.382 369.742 177.407 369.742 176.204V175.182C369.742 174.049 370.487 173.051 371.573 172.73V172.73C373.211 172.245 374.855 173.473 374.855 175.182V175.55C374.855 177.114 376.123 178.382 377.687 178.382H378.266C379.625 178.382 380.727 179.483 380.727 180.842V180.842Z" fill="white"/>
<path d="M410.643 180.842C410.643 182.201 409.542 183.302 408.183 183.302H407.707C406.086 183.302 404.772 184.616 404.772 186.238V194.657C404.772 195.635 404.993 196.344 405.435 196.786C405.877 197.196 406.524 197.433 407.376 197.496C407.62 197.504 407.88 197.51 408.156 197.511C409.51 197.518 410.643 198.583 410.643 199.937V199.937C410.643 201.136 409.748 202.161 408.55 202.219C405.711 202.358 403.599 201.966 402.215 201.044C400.51 199.877 399.658 197.748 399.658 194.657V185.48C399.658 184.277 398.683 183.302 397.48 183.302V183.302C396.277 183.302 395.302 182.327 395.302 181.124V180.56C395.302 179.357 396.277 178.382 397.48 178.382V178.382C398.683 178.382 399.658 177.407 399.658 176.204V175.182C399.658 174.049 400.403 173.051 401.489 172.73V172.73C403.128 172.245 404.772 173.473 404.772 175.182V175.55C404.772 177.114 406.04 178.382 407.604 178.382H408.183C409.542 178.382 410.643 179.483 410.643 180.842V180.842Z" fill="#D99BFF"/>
<path d="M420.626 179.921C420.626 180.476 421.55 180.719 421.919 180.305C422.795 179.32 423.91 178.645 425.266 178.28C426.694 177.894 427.917 179.155 427.917 180.635V180.635C427.917 182.182 426.575 183.344 425.089 183.775C424.268 184.013 423.506 184.392 422.804 184.911C421.352 185.952 420.626 187.686 420.626 190.115V199.481C420.626 200.893 419.481 202.038 418.069 202.038V202.038C416.657 202.038 415.512 200.893 415.512 199.481V180.939C415.512 179.526 416.657 178.382 418.069 178.382H419.086C419.936 178.382 420.626 179.071 420.626 179.921V179.921Z" fill="#D99BFF"/>
<path d="M447.652 180.939C447.652 179.526 448.797 178.382 450.209 178.382V178.382C451.621 178.382 452.766 179.526 452.766 180.939V199.481C452.766 200.893 451.621 202.038 450.209 202.038H448.335C447.958 202.038 447.652 201.732 447.652 201.354V201.354C447.652 200.671 446.647 200.336 446.125 200.778C444.651 202.028 442.714 202.653 440.313 202.653C437.598 202.653 435.405 201.785 433.732 200.051C432.059 198.316 431.222 195.934 431.222 192.906V180.939C431.222 179.526 432.367 178.382 433.779 178.382V178.382C435.191 178.382 436.336 179.526 436.336 180.939V192.386C436.336 194.152 436.809 195.509 437.756 196.455C438.703 197.401 439.997 197.874 441.639 197.874C443.438 197.874 444.89 197.322 445.995 196.218C447.1 195.083 447.652 193.364 447.652 191.061V180.939Z" fill="#D99BFF"/>
<path d="M466.468 192.386C464.562 192.386 463.097 194.257 464.38 195.666C464.675 195.99 465.007 196.285 465.374 196.549C466.731 197.496 468.389 197.969 470.346 197.969C472.164 197.969 473.679 197.53 474.888 196.652C475.921 195.902 477.304 195.532 478.406 196.175V196.175C479.629 196.89 480.01 198.518 478.984 199.495C476.775 201.6 473.88 202.653 470.298 202.653C466.447 202.653 463.338 201.486 460.971 199.152C458.603 196.786 457.42 193.805 457.42 190.21C457.42 186.677 458.588 183.728 460.923 181.362C463.259 178.965 466.258 177.767 469.92 177.767C473.392 177.767 476.233 178.981 478.442 181.41C480.683 183.838 481.804 186.787 481.804 190.257V190.257C481.804 191.484 480.703 192.386 479.475 192.386H466.468ZM464.181 184.932C463.002 186.403 464.472 188.223 466.357 188.223H473.053C474.923 188.223 476.421 186.422 475.286 184.936C474.979 184.533 474.626 184.178 474.228 183.87C472.997 182.892 471.545 182.403 469.872 182.403C467.978 182.403 466.4 182.924 465.137 183.965C464.782 184.257 464.463 184.58 464.181 184.932Z" fill="#D99BFF"/>
<path d="M554.371 180.939C554.371 179.526 555.516 178.382 556.928 178.382V178.382C558.34 178.382 559.485 179.526 559.485 180.939V199.481C559.485 200.893 558.34 202.038 556.928 202.038H555.054C554.677 202.038 554.371 201.732 554.371 201.354V201.354C554.371 200.671 553.366 200.336 552.844 200.778C551.37 202.028 549.432 202.653 547.032 202.653C544.317 202.653 542.124 201.785 540.451 200.051C538.778 198.316 537.941 195.934 537.941 192.906V180.939C537.941 179.526 539.086 178.382 540.498 178.382V178.382C541.91 178.382 543.055 179.526 543.055 180.939V192.386C543.055 194.152 543.528 195.509 544.475 196.455C545.422 197.401 546.716 197.874 548.358 197.874C550.157 197.874 551.609 197.322 552.714 196.218C553.819 195.083 554.371 193.364 554.371 191.061V180.939Z" fill="white"/>
<path d="M565.626 202.038C565.536 202.038 565.464 201.965 565.464 201.876V172.497C565.464 169.737 567.702 167.5 570.462 167.5V167.5C570.526 167.5 570.578 167.552 570.578 167.616V197.085C570.578 199.82 568.361 202.038 565.626 202.038V202.038Z" fill="white"/>
<path d="M589.726 180.842C589.726 182.201 588.624 183.302 587.265 183.302H586.79C585.169 183.302 583.854 184.616 583.854 186.238V194.657C583.854 195.635 584.075 196.344 584.517 196.786C584.959 197.196 585.606 197.433 586.458 197.496C586.703 197.504 586.963 197.51 587.238 197.511C588.592 197.518 589.726 198.583 589.726 199.937V199.937C589.726 201.136 588.83 202.161 587.633 202.219C584.793 202.358 582.681 201.966 581.297 201.044C579.593 199.877 578.741 197.748 578.741 194.657V185.48C578.741 184.277 577.766 183.302 576.563 183.302V183.302C575.36 183.302 574.385 182.327 574.385 181.124V180.56C574.385 179.357 575.36 178.382 576.563 178.382V178.382C577.766 178.382 578.741 177.407 578.741 176.204V175.182C578.741 174.049 579.486 173.051 580.572 172.73V172.73C582.21 172.245 583.854 173.473 583.854 175.182V175.55C583.854 177.114 585.122 178.382 586.686 178.382H587.265C588.624 178.382 589.726 179.483 589.726 180.842V180.842Z" fill="white"/>
<path d="M599.193 173.887C598.562 174.518 597.804 174.833 596.92 174.833C596.036 174.833 595.263 174.518 594.6 173.887C593.969 173.225 593.653 172.452 593.653 171.569C593.653 170.686 593.969 169.929 594.6 169.298C595.231 168.635 596.005 168.304 596.92 168.304C597.836 168.304 598.609 168.635 599.24 169.298C599.872 169.929 600.187 170.686 600.187 171.569C600.187 172.452 599.856 173.225 599.193 173.887ZM596.92 202.038C595.508 202.038 594.363 200.893 594.363 199.481V180.939C594.363 179.526 595.508 178.382 596.92 178.382V178.382C598.332 178.382 599.477 179.526 599.477 180.939V199.481C599.477 200.893 598.332 202.038 596.92 202.038V202.038Z" fill="white"/>
<path d="M608.206 190.115C606.847 190.115 605.746 189.014 605.746 187.655V187.655C605.746 186.296 606.847 185.195 608.206 185.195H620.805C622.163 185.195 623.265 186.296 623.265 187.655V187.655C623.265 189.014 622.163 190.115 620.805 190.115H608.206Z" fill="white"/>
<path d="M642.951 177.767C646.202 177.767 648.98 178.981 651.284 181.41C653.588 183.807 654.74 186.74 654.74 190.21C654.74 193.711 653.588 196.66 651.284 199.057C648.98 201.454 646.202 202.653 642.951 202.653C641.135 202.653 639.532 202.315 638.142 201.641C636.835 201.006 634.665 201.841 634.665 203.294V208.943C634.665 210.355 633.52 211.5 632.108 211.5V211.5C630.696 211.5 629.551 210.355 629.551 208.943V180.939C629.551 179.526 630.696 178.382 632.108 178.382H633.835C634.293 178.382 634.665 178.753 634.665 179.211V179.211C634.665 180.017 635.791 180.417 636.413 179.905C638.148 178.479 640.327 177.767 642.951 177.767ZM636.795 195.651C638.216 197.07 639.999 197.78 642.146 197.78C644.292 197.78 646.076 197.07 647.496 195.651C648.917 194.2 649.627 192.386 649.627 190.21C649.627 188.033 648.917 186.235 647.496 184.816C646.076 183.365 644.292 182.64 642.146 182.64C639.999 182.64 638.216 183.365 636.795 184.816C635.375 186.235 634.665 188.033 634.665 190.21C634.665 192.386 635.375 194.2 636.795 195.651Z" fill="white"/>
<path d="M659.654 202.038C659.5 202.038 659.375 201.913 659.375 201.759V172.435C659.375 169.71 661.585 167.5 664.31 167.5V167.5C664.409 167.5 664.489 167.58 664.489 167.678V197.203C664.489 199.873 662.324 202.038 659.654 202.038V202.038Z" fill="white"/>
<path d="M689.176 179.206C689.176 178.751 689.545 178.382 690 178.382H691.733C693.145 178.382 694.29 179.526 694.29 180.939V199.481C694.29 200.893 693.145 202.038 691.733 202.038H690.005C689.547 202.038 689.176 201.666 689.176 201.208V201.208C689.176 200.402 688.05 200.003 687.427 200.515C685.693 201.94 683.514 202.653 680.89 202.653C677.639 202.653 674.861 201.454 672.557 199.057C670.252 196.628 669.1 193.679 669.1 190.21C669.1 186.709 670.252 183.759 672.557 181.362C674.861 178.965 677.639 177.767 680.89 177.767C683.524 177.767 685.71 178.476 687.447 179.896C688.065 180.401 689.176 180.004 689.176 179.206V179.206ZM676.345 195.651C677.765 197.07 679.548 197.78 681.695 197.78C683.841 197.78 685.625 197.07 687.045 195.651C688.466 194.2 689.176 192.386 689.176 190.21C689.176 188.033 688.466 186.235 687.045 184.816C685.625 183.365 683.841 182.64 681.695 182.64C679.548 182.64 677.765 183.365 676.345 184.816C674.924 186.235 674.214 188.033 674.214 190.21C674.214 192.386 674.924 194.2 676.345 195.651Z" fill="white"/>
<path d="M713.46 180.842C713.46 182.201 712.359 183.302 711 183.302H710.525C708.903 183.302 707.589 184.616 707.589 186.238V194.657C707.589 195.635 707.81 196.344 708.252 196.786C708.694 197.196 709.341 197.433 710.193 197.496C710.437 197.504 710.697 197.51 710.973 197.511C712.327 197.518 713.46 198.583 713.46 199.937V199.937C713.46 201.136 712.565 202.161 711.368 202.219C708.528 202.358 706.416 201.966 705.032 201.044C703.328 199.877 702.475 197.748 702.475 194.657V185.48C702.475 184.277 701.5 183.302 700.297 183.302V183.302C699.094 183.302 698.119 182.327 698.119 181.124V180.56C698.119 179.357 699.094 178.382 700.297 178.382V178.382C701.5 178.382 702.475 177.407 702.475 176.204V175.182C702.475 174.049 703.22 173.051 704.306 172.73V172.73C705.945 172.245 707.589 173.473 707.589 175.182V175.55C707.589 177.114 708.857 178.382 710.421 178.382H711C712.359 178.382 713.46 179.483 713.46 180.842V180.842Z" fill="white"/>
<path d="M729.255 170.573C729.255 171.996 727.997 173.013 726.619 173.368C724.652 173.873 723.668 175.387 723.668 177.909V177.909C723.668 178.17 723.88 178.382 724.141 178.382H726.795C728.153 178.382 729.255 179.483 729.255 180.842V180.842C729.255 182.201 728.153 183.302 726.795 183.302H726.461C724.919 183.302 723.668 184.553 723.668 186.096V199.481C723.668 200.893 722.523 202.038 721.111 202.038V202.038C719.699 202.038 718.554 200.893 718.554 199.481V185.101C718.554 184.108 717.749 183.302 716.755 183.302V183.302C715.761 183.302 714.956 182.497 714.956 181.503V180.181C714.956 179.187 715.761 178.382 716.755 178.382H718.081C718.342 178.382 718.554 178.17 718.554 177.909V177.909C718.554 174.66 719.454 172.2 721.253 170.528C722.666 169.213 724.578 168.472 726.987 168.303C728.26 168.214 729.255 169.298 729.255 170.573V170.573Z" fill="white"/>
<path d="M742.312 202.653C738.839 202.653 735.888 201.454 733.458 199.057C731.027 196.66 729.812 193.711 729.812 190.21C729.812 186.709 731.027 183.759 733.458 181.362C735.888 178.965 738.839 177.767 742.312 177.767C745.815 177.767 748.767 178.965 751.166 181.362C753.596 183.759 754.812 186.709 754.812 190.21C754.812 193.711 753.596 196.66 751.166 199.057C748.767 201.454 745.815 202.653 742.312 202.653ZM737.056 195.556C738.476 196.975 740.228 197.685 742.312 197.685C744.395 197.685 746.147 196.975 747.567 195.556C748.988 194.137 749.698 192.354 749.698 190.21C749.698 188.065 748.988 186.283 747.567 184.863C746.147 183.444 744.395 182.734 742.312 182.734C740.228 182.734 738.476 183.444 737.056 184.863C735.636 186.283 734.925 188.065 734.925 190.21C734.925 192.354 735.636 194.137 737.056 195.556Z" fill="white"/>
<path d="M764.549 179.074C764.549 179.822 765.88 180.2 766.445 179.709C767.46 178.827 768.733 178.278 770.264 178.062C771.129 177.939 771.841 178.664 771.841 179.537V180.635C771.841 182.182 770.498 183.344 769.013 183.775C768.192 184.013 767.43 184.392 766.727 184.911C765.275 185.952 764.549 187.686 764.549 190.115V199.481C764.549 200.893 763.404 202.038 761.992 202.038V202.038C760.58 202.038 759.436 200.893 759.436 199.481V180.939C759.436 179.526 760.58 178.382 761.992 178.382H763.857C764.239 178.382 764.549 178.691 764.549 179.074V179.074Z" fill="white"/>
<path d="M801.471 177.767C804.154 177.767 806.317 178.634 807.958 180.369C809.599 182.104 810.42 184.438 810.42 187.371V201.956C810.42 202.001 810.384 202.038 810.339 202.038V202.038C807.559 202.038 805.306 199.785 805.306 197.006V187.702C805.306 186.062 804.896 184.8 804.076 183.917C803.255 183.003 802.134 182.545 800.714 182.545C799.135 182.545 797.873 183.066 796.926 184.106C796.01 185.147 795.553 186.709 795.553 188.79V199.481C795.553 200.893 794.408 202.038 792.996 202.038V202.038C791.584 202.038 790.439 200.893 790.439 199.481V187.702C790.439 186.062 790.045 184.8 789.255 183.917C788.498 183.003 787.409 182.545 785.988 182.545C784.442 182.545 783.179 183.081 782.201 184.154C781.222 185.195 780.733 186.74 780.733 188.79V197.056C780.733 199.807 778.502 202.038 775.751 202.038V202.038C775.678 202.038 775.619 201.978 775.619 201.905V183.296C775.619 180.582 777.819 178.382 780.533 178.382V178.382C780.643 178.382 780.733 178.471 780.733 178.581V179.725C780.733 180.17 781.353 180.371 781.66 180.05C783.117 178.528 785.065 177.767 787.503 177.767C789.933 177.767 791.855 178.567 793.27 180.169C793.766 180.731 794.716 180.749 795.231 180.204C796.766 178.579 798.846 177.767 801.471 177.767Z" fill="white"/>
<path d="M850.402 181.223C849.648 183.243 849.843 186.153 850.978 187.986V187.986C851.799 189.311 852.209 190.841 852.209 192.575C852.209 195.288 851.246 197.543 849.321 199.341C847.395 201.139 845.044 202.038 842.266 202.038H831.061C829.405 202.038 828.061 200.694 828.061 199.038V171.919C828.061 170.263 829.405 168.919 831.061 168.919H841.224C843.939 168.919 846.228 169.803 848.09 171.569C849.984 173.304 850.931 175.48 850.931 178.098C850.931 179.236 850.754 180.278 850.402 181.223ZM841.224 174.029H836.507C834.85 174.029 833.507 175.372 833.507 177.029V179.734C833.507 181.391 834.85 182.734 836.507 182.734H841.224C842.424 182.734 843.434 182.324 844.255 181.504C845.075 180.653 845.486 179.612 845.486 178.382C845.486 177.152 845.075 176.127 844.255 175.306C843.434 174.455 842.424 174.029 841.224 174.029ZM842.266 196.928C843.529 196.928 844.586 196.486 845.438 195.603C846.322 194.689 846.764 193.585 846.764 192.291C846.764 190.998 846.322 189.91 845.438 189.027C844.586 188.112 843.529 187.655 842.266 187.655H836.507C834.85 187.655 833.507 188.998 833.507 190.655V193.928C833.507 195.585 834.85 196.928 836.507 196.928H842.266Z" fill="#D99BFF"/>
<path d="M868.035 202.653C864.562 202.653 861.611 201.454 859.181 199.057C856.75 196.66 855.535 193.711 855.535 190.21C855.535 186.709 856.75 183.759 859.181 181.362C861.611 178.965 864.562 177.767 868.035 177.767C871.538 177.767 874.49 178.965 876.889 181.362C879.319 183.759 880.535 186.709 880.535 190.21C880.535 193.711 879.319 196.66 876.889 199.057C874.49 201.454 871.538 202.653 868.035 202.653ZM862.779 195.556C864.199 196.975 865.951 197.685 868.035 197.685C870.118 197.685 871.87 196.975 873.29 195.556C874.711 194.137 875.421 192.354 875.421 190.21C875.421 188.065 874.711 186.283 873.29 184.863C871.87 183.444 870.118 182.734 868.035 182.734C865.951 182.734 864.199 183.444 862.779 184.863C861.359 186.283 860.648 188.065 860.648 190.21C860.648 192.354 861.359 194.137 862.779 195.556Z" fill="#D99BFF"/>
<path d="M897.906 180.842C897.906 182.201 896.805 183.302 895.446 183.302H894.971C893.35 183.302 892.035 184.616 892.035 186.238V194.657C892.035 195.635 892.256 196.344 892.698 196.786C893.14 197.196 893.787 197.433 894.639 197.496C894.884 197.504 895.143 197.51 895.419 197.511C896.773 197.518 897.906 198.583 897.906 199.937V199.937C897.906 201.136 897.011 202.161 895.814 202.219C892.974 202.358 890.862 201.966 889.478 201.044C887.774 199.877 886.922 197.748 886.922 194.657V185.48C886.922 184.277 885.946 183.302 884.744 183.302V183.302C883.541 183.302 882.565 182.327 882.565 181.124V180.56C882.565 179.357 883.541 178.382 884.744 178.382V178.382C885.946 178.382 886.922 177.407 886.922 176.204V175.182C886.922 174.049 887.667 173.051 888.753 172.73V172.73C890.391 172.245 892.035 173.473 892.035 175.182V175.55C892.035 177.114 893.303 178.382 894.867 178.382H895.446C896.805 178.382 897.906 179.483 897.906 180.842V180.842Z" fill="#D99BFF"/>
<path d="M910.958 200.287C910.264 200.981 909.427 201.328 908.449 201.328C907.47 201.328 906.634 200.981 905.939 200.287C905.245 199.593 904.898 198.757 904.898 197.78C904.898 196.802 905.229 195.966 905.892 195.272C906.586 194.578 907.439 194.231 908.449 194.231C909.427 194.231 910.264 194.578 910.958 195.272C911.653 195.966 912 196.802 912 197.78C912 198.757 911.653 199.593 910.958 200.287Z" fill="white"/>
<path d="M524.466 177.58C527.137 177.58 529.29 178.448 530.923 180.183C532.557 181.917 533.375 184.251 533.375 187.185V201.778C533.375 201.818 533.341 201.851 533.3 201.851C530.53 201.851 528.284 199.63 528.284 196.889V187.516C528.284 185.876 527.875 184.614 527.058 183.731C526.241 182.816 525.126 182.359 523.712 182.359C522.141 182.359 520.884 182.879 519.941 183.92C519.03 184.961 518.574 186.522 518.574 188.604V199.333C518.574 200.724 517.435 201.851 516.029 201.851C514.623 201.851 513.484 200.724 513.484 199.333V187.516C513.484 185.876 513.091 184.614 512.305 183.731C511.551 182.816 510.467 182.359 509.053 182.359C507.513 182.359 506.257 182.895 505.283 183.967C504.308 185.008 503.821 186.554 503.821 188.604V197.408C503.821 199.862 501.81 201.851 499.33 201.851C498.999 201.851 498.731 201.586 498.731 201.259V182.916C498.731 180.309 500.867 178.195 503.503 178.195C503.679 178.195 503.821 178.336 503.821 178.51V178.843C503.821 179.489 504.766 179.8 505.257 179.375C506.641 178.179 508.41 177.58 510.561 177.58C512.903 177.58 514.772 178.331 516.166 179.833C516.735 180.445 517.807 180.466 518.395 179.872C519.908 178.344 521.932 177.58 524.466 177.58Z" fill="white"/>
</g>
<defs>
<filter id="filter0_f_210_104" x="-748.343" y="-706.339" width="2413.67" height="1988.7" filterUnits="userSpaceOnUse" color-interpolation-filters="sRGB">
<feFlood flood-opacity="0" result="BackgroundImageFix"/>
<feBlend mode="normal" in="SourceGraphic" in2="BackgroundImageFix" result="shape"/>
<feGaussianBlur stdDeviation="303.5" result="effect1_foregroundBlur_210_104"/>
</filter>
<clipPath id="clip0_210_104">
<rect width="960" height="256" fill="white"/>
</clipPath>
</defs>
</svg>
